<svg width="20" height="20" viewBox="0 0 20 20" fill="none" xmlns="http://www.w3.org/2000/svg">
<circle cx="10" cy="10" r="6.75" stroke="#04C6A6" stroke-width="2.5"/>
<path d="M12.6739 10.5802L7.60644 15.6706C7.50329 15.7749 7.38034 15.8578 7.24475 15.9143C7.10916 15.9709 6.96362 16 6.81662 16C6.66962 16 6.5241 15.9709 6.3885 15.9143C6.25291 15.8578 6.12996 15.7749 6.02682 15.6706L4.82909 14.7631C4.72463 14.6604 4.64169 14.538 4.58508 14.4031C4.52848 14.2682 4.49933 14.1235 4.49933 13.9773C4.49933 13.8311 4.52848 13.6863 4.58508 13.5514C4.64169 13.4165 4.72463 13.2941 4.82909 13.1914L8.15494 9.79805L4.8291 6.41221C4.72464 6.3095 4.6417 6.18714 4.58509 6.05224C4.52849 5.91734 4.49934 5.77259 4.49934 5.62637C4.49934 5.48016 4.52849 5.33541 4.58509 5.20051C4.6417 5.06561 4.72464 4.94325 4.8291 4.84054L6.02682 3.9319C6.12996 3.82757 6.25291 3.74472 6.3885 3.68816C6.5241 3.63161 6.66962 3.60248 6.81662 3.60248C6.96362 3.60248 7.10916 3.63161 7.24475 3.68816C7.38034 3.74472 7.50329 3.82757 7.60644 3.9319L12.6739 9.01589C12.7773 9.11847 12.9152 9.37459 12.9152 9.37459C12.9152 9.37459 13 9.65272 13 9.79805C13 9.94338 12.9712 10.0873 12.9152 10.2215C12.8593 10.3557 12.7773 10.4776 12.6739 10.5802Z" fill="#04C6A6"/>
</svg>
