<svg width="50" height="50" viewBox="0 0 50 50" fill="none" xmlns="http://www.w3.org/2000/svg">
<path d="M11.5103 8.41483C12.0391 8.23069 12.6167 8.38442 13.1014 8.62462C13.44 8.84372 13.7786 9.06516 14.1579 9.20851C14.1868 9.26329 14.2471 9.37167 14.2761 9.42528C14.2611 9.46141 14.2321 9.536 14.217 9.57213C14.4872 10.1898 14.66 10.9217 14.3979 11.5708C14.2193 11.7899 13.9085 11.8238 13.6569 11.9086C13.6557 12.2221 13.7056 12.5323 13.7322 12.8434C14.2703 12.9309 14.7259 12.5544 15.2582 12.5917C15.3301 12.2922 15.3869 11.9878 15.4822 11.6942C15.5924 11.8888 15.5969 12.1127 15.5982 12.3318C15.7373 12.3714 15.8788 12.4076 16.0212 12.4424C16.0226 12.4961 16.0237 12.6034 16.0237 12.657C18.357 12.671 20.689 12.6464 23.0224 12.6698C23.0166 12.75 23.0052 12.9109 23.0006 12.9915C23.0609 12.9915 23.1838 12.9926 23.2451 12.9926C23.2427 12.5662 23.245 12.1383 23.2439 11.7119C23.303 11.7095 23.419 11.706 23.477 11.7048C23.4784 12.0404 23.4794 12.3761 23.4829 12.7119C23.5338 12.7748 23.6359 12.9006 23.6871 12.9635C23.7254 12.9179 23.8018 12.8284 23.84 12.7828C24.0174 12.9496 23.9165 13.178 23.9086 13.3829C24.5615 13.3758 25.2212 13.4201 25.872 13.3665C25.9207 13.3304 26.0181 13.2593 26.0668 13.2233C26.1562 13.2581 26.2466 13.2932 26.3359 13.3293C26.6293 13.3221 26.9238 13.3212 27.2184 13.32C27.2123 13.4727 27.2077 13.6252 27.2019 13.778C26.8227 13.7721 26.4423 13.764 26.0689 13.8292C25.8277 13.6207 25.5041 13.6869 25.213 13.679C24.7654 13.6999 24.3036 13.6207 23.8701 13.7639C23.6124 13.8362 23.3297 13.8188 23.1024 13.6718C23.0477 13.8082 23.1314 14.1136 22.9027 14.1018C22.0028 14.1136 21.104 14.0937 20.2053 14.1077C20.0823 14.173 19.9583 14.2348 19.8356 14.2953C19.7057 14.6845 19.3334 14.9443 19.0166 15.182C18.9772 15.7799 19.2126 16.3382 19.3042 16.9185C19.1268 16.9696 18.9482 17.0223 18.7731 17.0806C18.5214 17.6773 18.6756 18.4918 18.0935 18.9081C17.647 19.1691 17.3515 19.7366 16.7494 19.647C17.0556 19.9034 16.6659 19.823 16.7065 19.6179C15.6176 19.5211 14.7002 18.879 13.7539 18.3896C13.7099 18.6575 13.6404 18.9211 13.5684 19.1833C13.9279 19.252 14.2248 19.5178 14.2886 19.8884C14.4034 20.6962 14.1737 21.4981 14.1772 22.308C14.2027 22.7835 13.9998 23.2193 13.747 23.6073C13.5255 23.8591 13.1764 23.6002 12.9108 23.5631C12.8504 23.6808 12.7914 23.7986 12.7334 23.9174C12.8088 24.2342 12.8413 24.5641 12.9468 24.8741C13.5394 25.5326 14.0786 26.2459 14.4927 27.0326C14.9188 27.9235 15.2986 28.8361 15.6304 29.7667C15.6628 29.9474 15.8321 30.0123 15.9808 30.0778C16.0005 30.2643 16.0202 30.4505 16.0387 30.6395C16.0967 30.7245 16.1559 30.8095 16.2162 30.8957C16.2521 32.045 16.1118 33.1894 15.9341 34.3234C15.8242 34.8351 16.122 35.335 16.0014 35.8501C16.0153 36.1138 15.8346 36.313 15.7498 36.5461C15.7335 37.0904 15.7068 37.6415 15.7662 38.1848C15.8077 38.5834 16.1431 38.8397 16.3704 39.137C16.6186 39.4017 16.8262 39.757 17.2019 39.8513C17.5556 39.9574 17.8931 40.1112 18.2048 40.313C18.2999 40.5494 18.2825 40.8002 18.2373 41.0459C17.5577 41.1718 16.8642 41.109 16.1777 41.1196C15.6486 41.1474 15.1769 40.8619 14.6629 40.8023C14.1654 40.7898 13.5589 41.0379 13.1764 40.5903C13.3385 39.9694 13.3515 39.3025 13.6482 38.7232C13.7433 38.0671 13.5626 37.4015 13.6006 36.7396C13.544 36.6918 13.4302 36.5962 13.3733 36.5482C13.4141 36.1159 13.2018 35.7312 13.1309 35.3176C13.0848 34.7135 13.0301 34.1101 12.9605 33.5087C12.906 33.2162 13.0567 32.9482 13.262 32.7536C13.2805 32.4156 13.326 32.081 13.3582 31.7455C13.3084 31.5274 13.1356 31.3655 13.0243 31.1791C12.652 31.3366 12.1499 31.2619 11.9284 30.8957C11.4031 30.1104 10.8788 29.3248 10.3477 28.5439C10.139 28.53 9.91862 28.552 9.72379 28.4681C9.49904 28.2363 9.38168 27.9275 9.23811 27.6454C9.03273 27.8773 9.04769 28.2327 8.80439 28.4438C8.28949 28.9404 8.15264 29.6699 7.8836 30.3061C7.6774 30.7186 7.79337 31.2163 7.56352 31.6184C7.44059 31.8351 7.13212 31.8782 7.05094 32.1255C6.94425 32.3922 6.819 32.6685 6.56967 32.8308C6.29946 33.0088 6.22768 33.347 6.10719 33.6265C5.99702 33.8842 6.16053 34.1545 6.12226 34.4192C5.95063 35.2596 5.41833 35.9622 5.19451 36.7851C5.09246 37.1558 4.94622 37.573 4.51714 37.6521C4.02891 38.5285 3.75998 39.6009 4.03598 40.5877C4.2053 40.8977 4.19602 41.2461 4.14384 41.5876C3.36812 41.6483 2.57246 41.7531 1.81066 41.5353C1.63207 41.1797 1.65758 40.7613 1.69469 40.3771C1.92999 39.3664 2.24206 38.3735 2.4333 37.3526C2.1944 37.1393 2.25018 36.8131 2.2547 36.5275C2.2467 35.9948 2.60725 35.5683 2.85774 35.1312C2.95179 34.6825 2.90772 34.2004 3.13839 33.7886C3.40987 33.2735 3.63937 32.7165 4.05813 32.3004C4.13804 31.9332 4.40732 31.656 4.51609 31.3025C4.63206 30.9902 4.42912 30.6731 4.46994 30.3539C4.56956 29.3852 4.74478 28.4262 4.8967 27.4647C4.60922 27.2234 4.70187 26.8401 4.61026 26.5148C4.65549 26.3866 4.71231 26.2643 4.78073 26.1454C4.70883 26.0789 4.63821 26.0113 4.56619 25.945C4.63578 25.6032 4.61606 24.9913 5.13792 25.1024C5.17039 23.9707 4.77958 22.8752 4.91062 21.7423C4.9802 21.8237 5.04851 21.9066 5.1182 21.9893L5.0811 21.6059C5.29912 21.4894 5.53105 21.3996 5.77459 21.3542C5.37797 21.3018 4.9918 21.2005 4.60307 21.1094C4.50914 20.8611 4.56155 20.5966 4.59611 20.3426C4.74687 19.4848 4.80254 18.6154 4.83385 17.7459C5.27337 17.5923 5.75812 17.7227 6.18721 17.5175C6.05407 16.4301 6.02044 15.2951 6.40523 14.2519C6.71486 13.3637 7.30642 12.5071 8.22941 12.1949C8.66546 12.0901 9.21399 11.9723 9.52223 12.3977C9.60689 12.3196 9.69155 12.2392 9.77621 12.1611C9.07239 10.7562 9.91317 8.70387 11.5103 8.41483V8.41483ZM17.1428 14.5078C16.9572 14.622 16.7752 14.7527 16.9702 14.9601C16.8751 15.0171 16.7798 15.072 16.6835 15.1244C16.5328 15.2409 16.1942 15.3072 16.2336 15.5429C16.403 15.8162 16.5489 16.1035 16.6697 16.4017C17.0396 16.0965 17.3341 15.686 17.5336 15.2515C17.5753 15.2084 17.6601 15.1221 17.7017 15.0801C17.6832 14.8808 17.6391 14.686 17.5614 14.502C17.4223 14.5045 17.2819 14.5067 17.1428 14.5078V14.5078Z" fill="white"/>
<path d="M20.6274 20.0931C21.1569 19.4169 22.0125 19.0424 22.8611 19.0564C25.4431 19.0589 28.0262 19.0553 30.6082 19.0576C31.8676 19.0845 33.0954 20.0804 33.2411 21.3746C29.6671 21.3625 26.094 21.3851 22.5213 21.3625C22.5178 23.7824 22.5132 26.2032 22.5213 28.6243C25.264 28.6197 28.0064 28.6149 30.7493 28.6266C30.7388 27.7596 30.7526 26.8925 30.7412 26.0256C29.385 26.0335 28.0286 26.0362 26.6723 26.0256C25.5844 25.9834 24.775 25.0322 24.53 24.0189C27.4461 24.0084 30.3611 24.0072 33.2769 24.0201C33.2645 25.5026 33.2841 26.9864 33.2665 28.4689C33.2318 29.7173 32.1705 30.8162 30.954 30.9414C28.1408 30.9414 25.3264 30.9402 22.5132 30.9402C21.6726 30.9341 20.9291 30.397 20.455 29.7267C20.1313 29.2527 20.0583 28.6643 20.0122 28.106C20.0076 26.1169 20.0145 24.1266 20.0098 22.1375C20.0204 21.4165 20.1464 20.6549 20.6274 20.0931ZM37.6858 19.1382C37.9763 19.0586 38.279 19.0529 38.5787 19.0564C40.9652 19.0637 43.3529 19.0483 45.7395 19.0623C47.0923 19.1208 48.2808 20.3028 48.333 21.6762C48.3354 23.896 48.3354 26.1167 48.333 28.3377C48.3087 29.6984 47.1177 30.9667 45.7524 30.9435C43.1277 30.9318 40.5029 30.9516 37.878 30.9341C36.5691 30.7867 35.5643 29.5219 35.555 28.2125C35.5365 26.1882 35.5573 24.1616 35.5446 22.1375C35.5342 21.5407 35.6406 20.9276 35.9528 20.4128C36.3192 19.7656 36.976 19.3127 37.6858 19.1382ZM38.0976 21.2984C38.1022 23.7953 38.0871 26.2933 38.1045 28.7903C40.6679 28.7974 43.2328 28.7891 45.7961 28.7936C45.804 26.2945 45.7973 23.7951 45.7994 21.2945C43.2326 21.2936 40.6645 21.289 38.0976 21.2984Z" fill="white"/>
</svg>
