<svg width="45" height="45" viewBox="0 0 45 45" fill="none" xmlns="http://www.w3.org/2000/svg">
<g opacity="0.5">
<path d="M29.4062 20.0625H28.1875V18.4375C28.1875 15.3014 25.6361 12.75 22.5 12.75C19.3639 12.75 16.8125 15.3014 16.8125 18.4375V20.0625H15.5938C15.3692 20.0625 15.1875 20.2442 15.1875 20.4688V30.625C15.1875 31.5212 15.9163 32.25 16.8125 32.25H28.1875C29.0837 32.25 29.8125 31.5212 29.8125 30.625V20.4688C29.8125 20.2442 29.6308 20.0625 29.4062 20.0625ZM23.7164 28.5489C23.7291 28.6636 23.6922 28.7786 23.6152 28.8647C23.5383 28.9508 23.428 29 23.3125 29H21.6875C21.5721 29 21.4618 28.9508 21.3848 28.8647C21.3078 28.7787 21.2709 28.6636 21.2836 28.5489L21.5399 26.2443C21.1238 25.9416 20.875 25.4628 20.875 24.9375C20.875 24.0413 21.6038 23.3125 22.5 23.3125C23.3963 23.3125 24.125 24.0413 24.125 24.9375C24.125 25.4628 23.8763 25.9416 23.4601 26.2443L23.7164 28.5489ZM25.75 20.0625H19.25V18.4375C19.25 16.6455 20.708 15.1875 22.5 15.1875C24.292 15.1875 25.75 16.6455 25.75 18.4375V20.0625V20.0625Z" fill="#2965FE"/>
</g>
<path d="M22.5 0L23.3419 2.59119H26.0665L23.8623 4.19263L24.7042 6.78381L22.5 5.18237L20.2958 6.78381L21.1377 4.19263L18.9335 2.59119H21.6581L22.5 0Z" fill="#FFCA28"/>
<path d="M41.25 18.75L42.0919 21.3412H44.8165L42.6123 22.9426L43.4542 25.5338L41.25 23.9324L39.0458 25.5338L39.8877 22.9426L37.6835 21.3412H40.4081L41.25 18.75Z" fill="#FFCA28"/>
<path d="M35.7583 32.0087L36.6002 34.5999H39.3248L37.1206 36.2013L37.9625 38.7925L35.7583 37.191L33.5541 38.7925L34.396 36.2013L32.1918 34.5999H34.9164L35.7583 32.0087Z" fill="#FFCA28"/>
<path d="M9.44141 32.2083L10.2833 34.7994H13.0079L10.8037 36.4009L11.6456 38.9921L9.44141 37.3906L7.23721 38.9921L8.07914 36.4009L5.87494 34.7994H8.59948L9.44141 32.2083Z" fill="#FFCA28"/>
<path d="M22.5 37.5L23.3419 40.0912H26.0665L23.8623 41.6926L24.7042 44.2838L22.5 42.6824L20.2958 44.2838L21.1377 41.6926L18.9335 40.0912H21.6581L22.5 37.5Z" fill="#FFCA28"/>
<path d="M3.75 18.75L4.59193 21.3412H7.31646L5.11227 22.9426L5.9542 25.5338L3.75 23.9324L1.54581 25.5338L2.38773 22.9426L0.183538 21.3412H2.90807L3.75 18.75Z" fill="#FFCA28"/>
<path d="M9.24145 5.49133L10.0834 8.08252L12.8079 8.08252L10.6037 9.68396L11.4456 12.2751L9.24145 10.6737L7.03726 12.2751L7.87919 9.68396L5.67499 8.08252L8.39953 8.08252L9.24145 5.49133Z" fill="#FFCA28"/>
<path d="M35.9587 5.69189L36.8007 8.28308H39.5252L37.321 9.88452L38.1629 12.4757L35.9587 10.8743L33.7545 12.4757L34.5965 9.88452L32.3923 8.28308H35.1168L35.9587 5.69189Z" fill="#FFCA28"/>
<path d="M13.6779 22.3936H15.0171V25.1395C14.6732 25.4167 14.2751 25.6294 13.8227 25.7776C13.3703 25.9259 12.9149 26 12.4564 26C11.7989 26 11.2078 25.8517 10.683 25.5552C10.1582 25.2523 9.74497 24.8366 9.44336 24.308C9.14779 23.773 9 23.1704 9 22.5C9 21.8297 9.14779 21.2302 9.44336 20.7017C9.74497 20.1667 10.1612 19.7509 10.692 19.4544C11.2228 19.1515 11.82 19 12.4836 19C13.0385 19 13.5422 19.0999 13.9946 19.2997C14.447 19.4995 14.8271 19.7896 15.1347 20.1699L14.1937 21.0981C13.7413 20.5889 13.1954 20.3343 12.556 20.3343C12.1518 20.3343 11.7929 20.4245 11.4792 20.605C11.1655 20.7855 10.9212 21.0401 10.7463 21.3688C10.5714 21.6975 10.4839 22.0746 10.4839 22.5C10.4839 22.919 10.5714 23.2928 10.7463 23.6215C10.9212 23.9503 11.1625 24.2081 11.4702 24.395C11.7838 24.5755 12.1397 24.6657 12.5379 24.6657C12.9601 24.6657 13.3401 24.5691 13.6779 24.3757V22.3936Z" fill="white"/>
<path d="M16.3787 19.116H19.256C19.9437 19.116 20.5499 19.2578 21.0747 19.5414C21.6056 19.8186 22.0157 20.2118 22.3053 20.721C22.6009 21.2302 22.7487 21.8232 22.7487 22.5C22.7487 23.1768 22.6009 23.7698 22.3053 24.279C22.0157 24.7882 21.6056 25.1846 21.0747 25.4682C20.5499 25.7454 19.9437 25.884 19.256 25.884H16.3787V19.116ZM19.1836 24.5981C19.817 24.5981 20.3207 24.4111 20.6947 24.0373C21.0747 23.657 21.2647 23.1446 21.2647 22.5C21.2647 21.8554 21.0747 21.3462 20.6947 20.9724C20.3207 20.5921 19.817 20.4019 19.1836 20.4019H17.8445V24.5981H19.1836Z" fill="white"/>
<path d="M27.8896 25.884L26.6681 23.9986H26.5957H25.3199V25.884H23.8541V19.116H26.5957C27.1567 19.116 27.6423 19.2159 28.0525 19.4157C28.4687 19.6156 28.7884 19.8992 29.0116 20.2666C29.2348 20.634 29.3464 21.0691 29.3464 21.5718C29.3464 22.0746 29.2318 22.5097 29.0025 22.8771C28.7793 23.238 28.4596 23.5152 28.0434 23.7086L29.464 25.884H27.8896ZM27.8625 21.5718C27.8625 21.1915 27.7478 20.9015 27.5186 20.7017C27.2894 20.4954 26.9546 20.3923 26.5143 20.3923H25.3199V22.7514H26.5143C26.9546 22.7514 27.2894 22.6483 27.5186 22.442C27.7478 22.2357 27.8625 21.9457 27.8625 21.5718Z" fill="white"/>
<path d="M33.2493 19.116C33.8103 19.116 34.2959 19.2159 34.7061 19.4157C35.1223 19.6156 35.442 19.8992 35.6652 20.2666C35.8884 20.634 36 21.0691 36 21.5718C36 22.0681 35.8884 22.5032 35.6652 22.8771C35.442 23.2445 35.1223 23.5281 34.7061 23.7279C34.2959 23.9213 33.8103 24.018 33.2493 24.018H31.9735V25.884H30.5077V19.116H33.2493ZM33.1679 22.7417C33.6082 22.7417 33.943 22.6418 34.1723 22.442C34.4015 22.2357 34.5161 21.9457 34.5161 21.5718C34.5161 21.1915 34.4015 20.9015 34.1723 20.7017C33.943 20.4954 33.6082 20.3923 33.1679 20.3923H31.9735V22.7417H33.1679Z" fill="white"/>
</svg>
