<svg width="140" height="80" viewBox="0 0 140 80" fill="none" xmlns="http://www.w3.org/2000/svg">
<path d="M101.999 39.8307C102.032 43.7861 100.92 47.6628 98.8047 50.9702C96.6891 54.2778 93.6649 56.8676 90.1143 58.4123C86.5638 59.9568 82.6464 60.3868 78.8576 59.648C75.0687 58.9091 71.5786 57.0346 68.8286 54.2612C66.0784 51.4879 64.1919 47.9403 63.4075 44.0674C62.6232 40.1944 62.9761 36.1697 64.4219 32.5025C65.8677 28.8353 68.3411 25.6901 71.5296 23.4647C74.7182 21.2393 78.4785 20.0337 82.335 20.0002H82.4993C85.0473 19.9872 87.5729 20.489 89.9318 21.477C92.2907 22.465 94.4368 23.9199 96.2475 25.7585C98.0582 27.5972 99.4981 29.7837 100.485 32.1931C101.472 34.6025 101.986 37.1877 101.999 39.8011L101.999 39.8307Z" fill="#F59D1A"/>
<path d="M77.9993 39.8306C78.0328 43.7861 76.8927 47.6628 74.723 50.9702C72.5531 54.2778 69.4513 56.8676 65.8097 58.4121C62.1681 59.9568 58.1503 60.3868 54.2643 59.6481C50.3783 58.9091 46.7986 57.0346 43.978 54.2612C41.1574 51.4879 39.2225 47.9405 38.418 44.0674C37.6135 40.1945 37.9755 36.1699 39.4583 32.5026C40.9411 28.8354 43.478 25.6902 46.7483 23.4648C50.0186 21.2394 53.8753 20.0337 57.8307 20.0002H57.9994C60.6127 19.9872 63.2029 20.489 65.6225 21.477C68.0418 22.465 70.243 23.9199 72.1001 25.7585C73.9573 27.5972 75.4341 29.7837 76.4462 32.1931C77.4584 34.6025 77.9861 37.1878 77.9993 39.8011V39.8306Z" fill="#E7001B"/>
<path d="M70.4997 24C68.1657 25.8896 66.2761 28.3142 64.9761 31.0878C63.676 33.8614 63 36.9102 63 40C63 43.0899 63.676 46.1385 64.9761 48.9122C66.2761 51.6857 68.1657 54.1104 70.4997 56C72.8338 54.1105 74.7237 51.6859 76.0239 48.9123C77.324 46.1386 78 43.0899 78 40C78 36.9101 77.324 33.8613 76.0239 31.0877C74.7237 28.3141 72.8338 25.8895 70.4997 24Z" fill="#FC5F01"/>
</svg>
