<svg width="75" height="43" viewBox="0 0 75 43" fill="none" xmlns="http://www.w3.org/2000/svg">
<path d="M50.4174 11.1539V27.1246C50.4174 29.222 49.2603 31.1123 47.3954 32.066L40.0352 36.3921L40.0092 36.4054C39.2239 36.802 38.3617 37 37.5001 37C36.6385 37 35.7762 36.802 34.991 36.4054L34.9401 36.3776L27.6053 32.0659C25.7398 31.1123 24.5828 29.222 24.5828 27.1246V11.1539C24.5828 10.2959 25.1592 9.54266 25.9862 9.31803L37.1998 6.04057L37.2113 6.03754C37.3057 6.01271 37.4026 6 37.5001 6C37.5976 6 37.6944 6.01271 37.7889 6.03754L37.8125 6.0442L49.0139 9.31803C49.841 9.54266 50.4174 10.2959 50.4174 11.1539Z" fill="#90C947"/>
<path d="M50.4173 11.1539V27.1246C50.4173 29.222 49.2603 31.1123 47.3954 32.066L40.0352 36.3921L40.0091 36.4054C39.2238 36.802 38.3616 37 37.5 37V6C37.5975 6 37.6944 6.01271 37.7888 6.03754L37.8124 6.0442L49.0138 9.31803C49.8409 9.54266 50.4173 10.2959 50.4173 11.1539Z" fill="#77BC1F"/>
<path d="M33.4514 20.0128C33.2467 19.6178 32.9917 19.3112 32.6866 19.0918C32.3824 18.8725 32.0488 18.6716 31.6875 18.4862C31.3263 18.3018 30.9936 18.1514 30.6884 18.0359C30.3833 17.9194 30.1284 17.7807 29.9246 17.6166C29.7199 17.4546 29.6175 17.274 29.6175 17.0761C29.6175 16.8616 29.7258 16.6791 29.9433 16.5287C30.1618 16.3783 30.4876 16.3035 30.9237 16.3035C31.3332 16.3035 31.7072 16.3851 32.0468 16.5481C32.3864 16.7111 32.6088 16.7927 32.7132 16.7927C32.9652 16.7927 33.164 16.6704 33.3077 16.4268C33.4514 16.1822 33.5233 15.9464 33.5233 15.7193C33.5233 15.4805 33.4248 15.2777 33.229 15.1088C33.0331 14.9409 32.7801 14.8196 32.471 14.7449C32.162 14.6692 31.8834 14.6187 31.6354 14.5915C31.3873 14.5653 31.1501 14.5518 30.9237 14.5518C30.0004 14.5518 29.212 14.7769 28.5594 15.2282C27.9058 15.6785 27.58 16.3589 27.58 17.2692C27.58 17.8272 27.7207 18.3086 28.0042 18.7123C28.2867 19.1161 28.6332 19.4266 29.0427 19.646C29.4521 19.8643 29.8587 20.0623 30.2642 20.238C30.6688 20.4146 31.0123 20.6097 31.2958 20.8242C31.5783 21.0387 31.72 21.2881 31.72 21.5715C31.72 21.8549 31.594 22.0674 31.341 22.2091C31.0891 22.3498 30.7928 22.4207 30.4532 22.4207C30.1835 22.4207 29.9266 22.3692 29.6825 22.2654C29.4384 22.1606 29.2494 22.0461 29.1145 21.9189C28.9797 21.7918 28.831 21.6773 28.6706 21.5724C28.5092 21.4686 28.3635 21.4162 28.2326 21.4162C27.9973 21.4162 27.7906 21.5365 27.6125 21.7772C27.4333 22.0179 27.3447 22.2586 27.3447 22.4983C27.3447 22.9283 27.6577 23.3145 28.2847 23.6571C28.9118 24.0007 29.648 24.1724 30.4926 24.1724C31.468 24.1724 32.2555 23.9259 32.8569 23.4329C33.4573 22.9399 33.7585 22.2508 33.7585 21.3648C33.7585 20.8581 33.6552 20.4078 33.4514 20.0128Z" fill="white"/>
<path d="M40.9341 20.0128C40.7293 19.6178 40.4744 19.3112 40.1693 19.0918C39.8651 18.8725 39.5314 18.6716 39.1702 18.4862C38.8089 18.3018 38.4762 18.1514 38.1711 18.0359C38.0343 17.9835 37.9083 17.9272 37.7921 17.8651C37.6484 17.7904 37.5195 17.7069 37.4073 17.6166C37.2025 17.4546 37.1002 17.274 37.1002 17.0761C37.1002 16.8616 37.2085 16.6791 37.427 16.5287C37.5254 16.4598 37.6475 16.4064 37.7921 16.3705C37.9644 16.3259 38.1691 16.3035 38.4064 16.3035C38.8158 16.3035 39.1899 16.3851 39.5295 16.5481C39.8691 16.7111 40.0915 16.7927 40.1958 16.7927C40.4478 16.7927 40.6467 16.6704 40.7904 16.4268C40.9341 16.1822 41.0059 15.9464 41.0059 15.7193C41.0059 15.4805 40.9075 15.2777 40.7116 15.1088C40.5157 14.9409 40.2628 14.8196 39.9537 14.7449C39.6446 14.6692 39.3661 14.6187 39.118 14.5915C38.87 14.5653 38.6328 14.5518 38.4064 14.5518C38.1947 14.5518 37.99 14.5634 37.7921 14.5877C37.1287 14.6672 36.545 14.8808 36.042 15.2282C35.3885 15.6785 35.0626 16.3589 35.0626 17.2692C35.0626 17.8272 35.2034 18.3086 35.4869 18.7123C35.7694 19.1161 36.1159 19.4266 36.5253 19.646C36.9348 19.8643 37.3413 20.0623 37.7469 20.238C37.7616 20.2448 37.7774 20.2516 37.7921 20.2584C38.177 20.4292 38.5068 20.6175 38.7784 20.8242C39.0619 21.0387 39.2027 21.2881 39.2027 21.5715C39.2027 21.8549 39.0767 22.0674 38.8247 22.2091C38.5717 22.3498 38.2754 22.4207 37.9359 22.4207C37.8876 22.4207 37.8394 22.4187 37.7921 22.4158C37.5746 22.4003 37.365 22.3508 37.1651 22.2654C36.921 22.1606 36.732 22.0461 36.5972 21.9189C36.4623 21.7918 36.3137 21.6773 36.1533 21.5724C35.9918 21.4686 35.8462 21.4162 35.7152 21.4162C35.48 21.4162 35.2733 21.5365 35.0951 21.7772C34.916 22.0179 34.8274 22.2586 34.8274 22.4983C34.8274 22.9283 35.1404 23.3145 35.7674 23.6571C36.3491 23.9754 37.0244 24.1462 37.7921 24.1695C37.8532 24.1715 37.9132 24.1724 37.9752 24.1724C38.9507 24.1724 39.7391 23.9259 40.3396 23.4329C40.94 22.9399 41.2412 22.2508 41.2412 21.3648C41.2412 20.8581 41.1388 20.4078 40.9341 20.0128Z" fill="white"/>
<path d="M47.5059 21.7459C47.4063 21.5898 47.2693 21.5123 47.0947 21.5123H44.2546V15.1009C44.2546 14.922 44.1588 14.7854 43.9673 14.6919C43.7767 14.5985 43.5477 14.5518 43.282 14.5518C43.0163 14.5518 42.7882 14.5985 42.5976 14.6919C42.4061 14.7854 42.3103 14.922 42.3103 15.1009V22.542C42.3103 22.7209 42.3939 22.8593 42.56 22.9572C42.7262 23.0541 42.9252 23.1035 43.1581 23.1035H47.0947C47.2693 23.1035 47.4063 23.025 47.5059 22.869C47.6054 22.713 47.6551 22.5261 47.6551 22.3075C47.6551 22.0897 47.6054 21.9019 47.5059 21.7459Z" fill="white"/>
<path d="M47.6551 26.8448C47.6551 27.731 47.0273 28.4482 46.2537 28.4482H28.7461C27.9725 28.4482 27.3447 27.731 27.3447 26.8448C27.3447 25.9597 27.9725 25.2413 28.7461 25.2413H46.2537C47.0273 25.2413 47.6551 25.9597 47.6551 26.8448Z" fill="white"/>
</svg>
