<svg width="140" height="80" viewBox="0 0 140 80" fill="none" xmlns="http://www.w3.org/2000/svg">
<path d="M58.1969 23.4748L44.8402 55.5163H36.1691L29.8425 30.1204C29.5912 28.9671 28.9224 27.9511 27.9676 27.2724C25.4238 26.0829 22.75 25.2063 20 24.6615L20.2357 23.7122H34.2959C35.1675 23.7433 36.0045 24.0614 36.6803 24.6183C37.3578 25.1751 37.8361 25.9403 38.044 26.7977L41.5599 45.3106L49.9954 23.4757L58.1969 23.4748ZM91.9421 45.3097C91.9421 36.7653 80.4586 36.2897 80.4586 32.4931C80.4586 31.3062 81.63 30.1195 83.9745 29.8823C86.7072 29.6378 89.4555 30.129 91.9421 31.3062L93.3474 24.4234C90.8782 23.4726 88.2564 22.9901 85.6138 23.0002C77.4123 23.0002 71.7875 27.5101 71.7875 33.6808C71.7875 38.4276 76.0052 40.801 79.0533 42.4623C82.0996 44.1237 83.5049 45.0732 83.5049 46.2599C83.5049 48.3961 80.9282 49.3454 78.5854 49.3454C75.6725 49.3097 72.8012 48.6633 70.1482 47.4466L68.509 54.3296C71.4201 55.4739 74.5237 56.0378 77.648 55.9911C86.3173 56.2284 91.9421 51.7194 91.9421 45.3106V45.3097ZM113.5 55.7538H121L114.204 23.7122H107.174C106.43 23.7477 105.711 23.9873 105.091 24.4054C104.472 24.8235 103.977 25.4043 103.66 26.0856L91.4742 55.9911H100.144L101.785 51.2443H112.329L113.5 55.7538ZM104.361 44.3611L108.815 32.494L111.158 44.3611H104.361ZM69.6804 23.4748L62.8842 55.5163H54.681L61.4771 23.4748H69.6804Z" fill="#1976D2"/>
</svg>
