<?xml version="1.0" encoding="utf-8"?>
<!-- Generator: Adobe Illustrator 25.2.0, SVG Export Plug-In . SVG Version: 6.00 Build 0)  -->
<svg version="1.1" id="Layer_1" xmlns="http://www.w3.org/2000/svg" xmlns:xlink="http://www.w3.org/1999/xlink" x="0px" y="0px"
	 viewBox="0 0 330 330" style="enable-background:new 0 0 330 330;" xml:space="preserve">
<style type="text/css">
	.st0{fill:#21A16C;}
</style>
<g id="XMLID_518_">
	<path id="XMLID_519_" class="st0" d="M80,330h170c16.6,0,30-13.4,30-30V160c0-16.6-13.4-30-30-30h0V86.1
		c0-46.8-37.4-85.6-84.2-86.1C118.6-0.5,80,37.9,80,85v45h0c-16.6,0-30,13.4-30,30v140C50,316.6,63.4,330,80,330z M110,85
		c0-30.6,25.1-55.5,55.9-55C196,30.5,220,55.7,220,85.8V130H110V85z"/>
</g>
</svg>
